<?xml version="1.0" standalone="no"?>
<!DOCTYPE svg PUBLIC "-//W3C//DTD SVG 20010904//EN"
 "http://www.w3.org/TR/2001/REC-SVG-20010904/DTD/svg10.dtd">
<svg version="1.0" xmlns="http://www.w3.org/2000/svg"
 width="876.000000pt" height="220.000000pt" viewBox="0 0 876.000000 220.000000"
 preserveAspectRatio="xMidYMid meet">

<g transform="translate(0.000000,220.000000) scale(0.100000,-0.100000)"
fill="#000000" stroke="none">
<path d="M1167 1850 c-40 -32 -47 -77 -47 -310 0 -118 -3 -299 -7 -402 l-6
-187 -51 -17 c-101 -33 -227 -112 -279 -174 -78 -93 -128 -192 -152 -300 -9
-41 -21 -85 -26 -98 -14 -36 -11 -60 10 -72 13 -6 230 -10 635 -10 690 0 645
-5 620 73 -7 23 -20 74 -29 112 -51 231 -204 390 -462 480 -15 5 -18 106 -14
500 4 304 -4 372 -46 405 -35 27 -111 27 -146 0z m98 -480 l0 -405 -25 0 -25
0 -3 408 -2 408 27 -3 28 -3 0 -405z m93 -515 c90 -21 167 -62 233 -123 93
-86 147 -187 164 -309 l7 -51 -54 -7 c-72 -9 -994 -2 -1004 7 -14 15 18 150
52 217 68 136 223 247 384 274 57 10 159 6 218 -8z"/>
<path d="M2745 1610 c-4 -6 9 -10 34 -10 l41 0 0 -395 0 -395 -35 0 c-19 0
-35 -4 -35 -10 0 -6 52 -10 135 -10 83 0 135 4 135 10 0 6 -16 10 -35 10 l-35
0 -2 403 -3 402 -97 3 c-59 2 -99 -1 -103 -8z"/>
<path d="M4225 1545 c-46 -45 -19 -115 44 -115 75 0 95 104 25 130 -36 14 -42
13 -69 -15z"/>
<path d="M2090 1540 c8 -5 32 -10 53 -10 l37 0 0 -360 0 -360 -45 0 c-25 0
-45 -4 -45 -10 0 -6 102 -10 285 -10 l285 0 0 48 c0 26 2 79 5 117 6 77 -7 64
-20 -20 -8 -59 -28 -101 -54 -115 -11 -5 -76 -10 -145 -10 l-126 0 0 175 0
175 90 0 90 0 0 -55 c0 -30 5 -55 10 -55 6 0 10 45 10 116 0 74 -4 113 -10
109 -5 -3 -10 -26 -10 -49 0 -49 -10 -56 -90 -56 -95 0 -90 -11 -90 185 l0
173 43 5 c23 2 85 2 137 0 116 -5 120 -8 120 -115 0 -43 4 -78 8 -78 4 0 13
37 20 83 7 45 16 92 19 105 l5 22 -298 0 c-197 0 -294 -4 -284 -10z"/>
<path d="M5965 1540 c3 -5 26 -10 51 -10 l44 0 0 -360 0 -360 -45 0 c-25 0
-45 -5 -45 -10 0 -7 96 -9 281 -8 l281 3 3 60 c2 33 7 84 10 113 4 34 3 52 -4
52 -6 0 -11 -10 -11 -23 0 -42 -38 -161 -56 -174 -12 -9 -57 -13 -146 -13
l-128 0 0 360 0 360 33 1 c17 0 41 4 52 9 12 5 -47 9 -153 9 -113 1 -171 -2
-167 -9z"/>
<path d="M3800 1309 c-55 -11 -87 -34 -111 -79 -38 -71 -15 -158 53 -200 18
-11 77 -33 130 -50 113 -35 130 -49 126 -98 -5 -55 -42 -77 -132 -77 -65 0
-77 3 -110 29 -41 31 -66 78 -66 123 0 17 -3 23 -8 16 -4 -7 -9 -52 -10 -100
-1 -83 0 -87 15 -65 19 27 32 28 77 2 40 -24 159 -30 198 -9 63 32 98 86 98
151 0 85 -47 126 -186 166 -97 27 -127 42 -142 74 -18 39 -2 72 47 92 112 44
241 -13 241 -108 0 -14 5 -26 10 -26 6 0 10 30 10 69 0 38 3 77 6 86 4 11 -3
7 -19 -9 -30 -30 -40 -32 -57 -11 -11 13 -26 17 -105 29 -11 2 -40 -1 -65 -5z"/>
<path d="M4624 1310 c-85 -12 -124 -42 -124 -95 0 -50 31 -75 94 -75 43 1 48
2 31 12 -29 16 -35 28 -35 70 0 28 6 42 26 57 31 24 100 28 128 8 20 -15 34
-80 35 -158 l1 -46 -87 -12 c-143 -20 -223 -76 -223 -158 0 -78 57 -124 155
-124 59 0 103 18 133 56 22 28 32 32 32 12 0 -22 45 -58 82 -66 38 -9 90 2
107 22 16 20 26 77 13 77 -6 0 -12 -12 -14 -26 -2 -15 -12 -33 -23 -40 -41
-27 -46 -9 -50 195 -4 174 -6 195 -25 226 -33 54 -139 81 -256 65z m154 -332
l3 -78 -38 -40 c-47 -49 -81 -58 -114 -31 -21 17 -24 27 -24 84 0 51 5 72 21
94 22 29 81 53 124 50 24 -2 25 -5 28 -79z"/>
<path d="M5371 1309 c-53 -10 -102 -46 -124 -91 l-17 -33 0 63 0 62 -100 0
c-60 0 -100 -4 -100 -10 0 -5 16 -10 35 -10 l35 0 0 -240 0 -240 -35 0 c-19 0
-35 -4 -35 -10 0 -6 52 -10 135 -10 83 0 135 4 135 10 0 6 -16 10 -36 10 l-36
0 4 178 c4 172 5 178 31 224 30 50 75 78 125 78 58 0 62 -19 62 -262 l0 -218
-30 0 c-16 0 -30 -4 -30 -10 0 -6 52 -10 135 -10 83 0 135 4 135 10 0 6 -18
10 -40 10 l-40 0 0 200 c0 222 -7 258 -57 283 -37 19 -98 25 -152 16z"/>
<path d="M8018 1309 c-26 -4 -65 -17 -87 -29 -105 -60 -135 -281 -55 -403 74
-113 314 -120 375 -12 23 40 32 75 21 75 -5 0 -12 -14 -16 -31 -18 -93 -174
-141 -241 -74 -28 27 -42 77 -47 160 l-3 60 105 6 c58 4 131 7 164 8 l59 1 -6
58 c-8 98 -47 152 -120 170 -67 17 -99 19 -149 11z m99 -17 c23 -15 43 -82 43
-147 l0 -65 -95 0 -95 0 0 46 c0 69 19 132 48 154 25 20 77 26 99 12z"/>
<path d="M3040 1300 c0 -5 13 -10 29 -10 27 0 33 -10 151 -257 l123 -258 -12
-73 c-13 -88 -32 -127 -71 -147 -61 -32 -99 -16 -107 44 -4 32 -1 46 13 63
l19 21 -39 -6 c-49 -8 -76 -32 -76 -69 0 -76 141 -115 213 -58 32 25 52 77 66
171 7 42 26 112 42 155 17 43 39 104 50 134 51 143 94 245 111 262 10 10 29
18 43 18 14 0 25 5 25 10 0 6 -39 10 -97 10 -59 0 -93 -4 -88 -9 6 -5 24 -11
40 -13 45 -5 43 -36 -14 -184 -28 -71 -51 -135 -51 -141 0 -34 -21 2 -92 155
l-78 167 40 3 c22 2 38 7 35 13 -8 12 -275 12 -275 -1z"/>
<path d="M4140 1300 c0 -5 16 -10 35 -10 l35 0 0 -240 0 -240 -35 0 c-19 0
-35 -4 -35 -10 0 -6 52 -10 135 -10 83 0 135 4 135 10 0 6 -16 10 -35 10 l-35
0 0 250 0 250 -100 0 c-60 0 -100 -4 -100 -10z"/>
<path d="M6580 1300 c0 -5 18 -10 40 -10 l40 0 0 -197 c0 -169 3 -203 18 -233
24 -49 68 -71 140 -71 82 -1 125 20 161 77 l30 46 3 -58 3 -59 98 -3 c62 -2
97 1 97 8 0 5 -16 10 -35 10 l-35 0 0 250 0 250 -106 0 c-67 0 -103 -4 -99
-10 3 -5 22 -10 41 -10 l34 0 0 -168 c0 -160 -1 -171 -25 -219 -14 -28 -38
-59 -53 -69 -30 -20 -107 -23 -125 -5 -9 8 -13 79 -15 246 l-3 235 -105 0
c-63 0 -104 -4 -104 -10z"/>
<path d="M7240 1300 c0 -5 11 -10 24 -10 20 0 38 -21 101 -122 43 -67 80 -130
83 -140 5 -20 -94 -166 -135 -198 -14 -11 -36 -20 -49 -20 -13 0 -24 -4 -24
-10 0 -6 37 -10 90 -10 53 0 90 4 90 10 0 6 -13 10 -29 10 -45 0 -46 26 -6 84
52 75 86 112 91 100 2 -6 29 -49 59 -95 l55 -84 -35 -3 c-19 -2 -35 -7 -35
-13 0 -5 57 -9 135 -9 83 0 135 4 135 10 0 6 -12 10 -27 10 -22 0 -34 10 -58
48 -16 26 -55 87 -87 136 l-57 90 21 35 c68 114 123 171 165 171 14 0 21 4 18
10 -3 6 -44 10 -91 10 -49 0 -84 -4 -84 -10 0 -5 14 -10 30 -10 24 0 30 -4 30
-22 0 -21 -86 -158 -99 -158 -8 1 -111 165 -111 176 0 2 14 4 31 4 17 0 28 4
24 10 -4 6 -58 10 -131 10 -76 0 -124 -4 -124 -10z"/>
</g>
</svg>
